<svg preserveAspectRatio="none" overflow="visible" style="display: block;" width="178.994" height="53.3917" viewBox="0 0 178.994 53.3917" fill="none" xmlns="http://www.w3.org/2000/svg">
<g id="Group 1000006581">
<path id="Vector" d="M9.74381 0.468777L19.4876 0.410193L19.9086 53.2744L10.1648 53.333L9.74381 0.468777ZM73.0786 0.0879855L87.6943 0.000110624L88.1153 52.8643L73.4996 52.9522L73.0786 0.0879855ZM24.3595 0.380902L29.2314 0.35161L29.6525 53.2158L24.7805 53.2451L24.3595 0.380902ZM63.3348 0.146569L68.2067 0.117277L68.6277 52.9815L63.7558 53.0107L63.3348 0.146569ZM43.8472 0.263735L58.4629 0.17586L58.8839 53.04L44.2682 53.1279L43.8472 0.263735ZM34.1033 0.322318L38.9752 0.293027L39.3963 53.1572L34.5244 53.1865L34.1033 0.322318ZM0 0.52736L4.87191 0.498068L5.29293 53.3622L0.42102 53.3915L0 0.52736Z" fill="#0C3239"/>
<path id="Vector_2" d="M100.623 0.468666L110.367 0.410083L110.788 53.273L101.044 53.3315L100.623 0.468666ZM163.957 0.0878749L178.573 -2.68639e-09L178.994 52.8629L164.379 52.9508L163.957 0.0878749ZM115.238 0.380791L120.11 0.351499L120.531 53.2144L115.659 53.2437L115.238 0.380791ZM154.214 0.146458L159.086 0.117167L159.507 52.98L154.635 53.0093L154.214 0.146458ZM134.726 0.263625L149.342 0.17575L149.763 53.0386L135.147 53.1265L134.726 0.263625ZM124.982 0.322208L129.854 0.292916L130.275 53.1558L125.403 53.1851L124.982 0.322208ZM90.8789 0.527249L95.7508 0.497958L96.1718 53.3608L91.2999 53.3901L90.8789 0.527249Z" fill="#0C3239"/>
</g>
</svg>
